# xmcd CD database file
#
# Track frame offsets:
#	150
#	17420
#	31502
#	43831
#	59215
#	74384
#	93855
#	114398
#	130939
#	145675
#	163913
#
# Disc length: 2369 seconds
#
# Revision: 0
# Processed by: cddbd v1.4PL0 Copyright (c) Steve Scherf et al.
# Submitted via: CDex 1.50Beta7
#
DISCID=92093f0b
DTITLE=Joe Diffie - Honky Tonk Attitude
DYEAR=1900
DGENRE=Country
TTITLE0=Honky Tonk Attitude
TTITLE1=I'n not through losin' you
TTITLE2=Prop me up beside the jukebox (if I die)
TTITLE3=If I had any pride left at all
TTITLE4=I can walk the line (if it ain't too straight)
TTITLE5=Somewhere under the rainbow
TTITLE6=John Deere Green
TTITLE7=In my own backyard
TTITLE8=Here comes that train
TTITLE9=And that was the easy part
TTITLE10=Cold budweiser and a sweet tater
EXTD=
EXTT0=
EXTT1=
EXTT2=
EXTT3=
EXTT4=
EXTT5=
EXTT6=
EXTT7=
EXTT8=
EXTT9=
EXTT10=
PLAYORDER=
